<svg width="18" height="18" fill="none" xmlns="http://www.w3.org/2000/svg"><path d="M1.318 1.664h13.41c.04 0 .077.015.114.027l.33-1.101a.82.82 0 01.783-.59h1.636c.226 0 .409.186.409.416v.832c0 .23-.183.416-.41.416h-1.03l-2.555 8.54.954 1.133c.377.448.547 1.064.374 1.627-.222.719-.847 1.179-1.567 1.179H2.046a.413.413 0 01-.41-.416v-.832c0-.23.184-.416.41-.416h11.72l-1.296-1.538c-.033-.04-.057-.083-.082-.126H4.461A1.635 1.635 0 012.98 9.86L.125 3.691A1.37 1.37 0 010 3.121v-.118c0-.74.59-1.34 1.318-1.34z" fill="#F9FBFF"/><path d="M13.179 18a1.607 1.607 0 110-3.214 1.607 1.607 0 010 3.214zm-9.643 0a1.607 1.607 0 110-3.214 1.607 1.607 0 010 3.214z" fill="#fff"/></svg>